<svg width="52" height="52" viewBox="0 0 52 52" fill="none" xmlns="http://www.w3.org/2000/svg">
<path fill-rule="evenodd" clip-rule="evenodd" d="M26 12.5882C17.3493 12.5882 9.86349 16.0072 5.2919 21.0072C4.10172 22.3089 2.14871 22.3338 0.929726 21.0628C-0.289253 19.7919 -0.312595 17.7063 0.87759 16.4046C6.75677 9.97448 15.9098 6 26 6C36.0902 6 45.2432 9.97448 51.1224 16.4046C52.3126 17.7063 52.2893 19.7919 51.0703 21.0628C49.8513 22.3338 47.8983 22.3089 46.7081 21.0072C42.1365 16.0072 34.6507 12.5882 26 12.5882Z" fill="#FFB648"/>
<path fill-rule="evenodd" clip-rule="evenodd" d="M26 26.9181C20.7144 26.9181 16.2255 29.0153 13.5424 31.9575C12.2959 33.3244 10.2504 33.3505 8.97374 32.0159C7.69705 30.6813 7.67261 28.4913 8.91913 27.1244C12.9717 22.6805 19.2068 20 26 20C32.7932 20 39.0283 22.6805 43.0809 27.1244C44.3274 28.4913 44.3029 30.6813 43.0263 32.0159C41.7496 33.3505 39.7041 33.3244 38.4576 31.9575C35.7745 29.0153 31.2856 26.9181 26 26.9181Z" fill="#FFB648"/>
<ellipse cx="26" cy="40.5" rx="5.5" ry="5.5" fill="#FFCB7D"/>
</svg>
