<svg width="52" height="52" viewBox="0 0 52 52" fill="none" xmlns="http://www.w3.org/2000/svg">
<path d="M6.18696 12.5852C6.29192 11.4298 7.21156 10.5524 8.36069 10.3927C10.4376 10.1039 13.7626 9.57596 16.2096 8.87091C19.0245 8.05983 23.0015 6.34479 24.9035 5.49652C25.6024 5.18484 26.3976 5.18484 27.0965 5.49652C28.9985 6.34479 32.9755 8.05983 35.7904 8.87091C38.2374 9.57596 41.5624 10.1039 43.6393 10.3927C44.7884 10.5524 45.7081 11.4298 45.813 12.5852C46.4149 19.2102 46.765 40.8295 26.6959 46.8015C26.2502 46.9341 25.7498 46.9341 25.3041 46.8015C5.23502 40.8295 5.58509 19.2102 6.18696 12.5852Z" fill="#B45DDD"/>
<path d="M19 25.5C19 24.5611 19.7835 23.8 20.75 23.8H31.25C32.2165 23.8 33 24.5611 33 25.5V32.3C33 33.2389 32.2165 34 31.25 34H20.75C19.7835 34 19 33.2389 19 32.3V25.5Z" fill="white"/>
<path d="M29.5 23.8V20.4C29.5 18.5222 27.933 17 26 17C24.067 17 22.5 18.5222 22.5 20.4V23.8M20.75 34H31.25C32.2165 34 33 33.2389 33 32.3V25.5C33 24.5611 32.2165 23.8 31.25 23.8H20.75C19.7835 23.8 19 24.5611 19 25.5V32.3C19 33.2389 19.7835 34 20.75 34Z" stroke="white" stroke-width="2" stroke-linecap="round" stroke-linejoin="round"/>
</svg>
