<svg width="52" height="52" viewBox="0 0 52 52" fill="none" xmlns="http://www.w3.org/2000/svg">
<path d="M4 9.3086C4 7.51367 5.45507 6.05859 7.25 6.05859H35.35C37.1449 6.05859 38.6 7.51367 38.6 9.30859V44.0086C38.6 45.8035 37.1449 47.2586 35.35 47.2586H7.25C5.45508 47.2586 4 45.8035 4 44.0086V9.3086Z" fill="#FCAE30"/>
<rect width="14" height="2" rx="1" transform="matrix(1 0 0 -1 14 25)" fill="white"/>
<path d="M14.166 29.9395C14.166 30.4917 14.6137 30.9395 15.166 30.9395H22.916C23.4683 30.9395 23.916 30.4917 23.916 29.9395C23.916 29.3872 23.4683 28.9395 22.916 28.9395H15.166C14.6137 28.9395 14.166 29.3872 14.166 29.9395Z" fill="white"/>
<rect x="14.2832" y="4" width="15.4375" height="7.3125" rx="1.625" fill="#E26F1C"/>
<path fill-rule="evenodd" clip-rule="evenodd" d="M42.7752 21.7786C42.4226 21.4263 41.8508 21.4263 41.4982 21.7786L28.3148 34.9508C27.792 35.4732 27.5131 36.147 27.4781 36.8309L26.4133 40.2195C26.2822 40.6368 26.6749 41.0292 27.0926 40.8982L30.4554 39.8433C31.1522 39.8164 31.8412 39.5372 32.3732 39.0057L45.5565 25.8335C45.9092 25.4812 45.9092 24.9099 45.5565 24.5575L42.7752 21.7786Z" fill="#E26F1C"/>
</svg>
