<?xml version="1.0" encoding="utf-8"?>
<!-- Generator: Adobe Illustrator 16.0.3, SVG Export Plug-In . SVG Version: 6.00 Build 0)  -->
<!DOCTYPE svg PUBLIC "-//W3C//DTD SVG 1.1//EN" "http://www.w3.org/Graphics/SVG/1.1/DTD/svg11.dtd">
<svg version="1.1" id="Layer_1" xmlns="http://www.w3.org/2000/svg" xmlns:xlink="http://www.w3.org/1999/xlink" x="0px" y="0px"
	 width="52px" height="52px" viewBox="0 0 52 52" enable-background="new 0 0 52 52" xml:space="preserve">
<path fill="#52565B" d="M25.301,29.967c0.232-0.707,1.234-0.704,1.46,0.003l2.646,8.273C30.144,40.55,28.423,42.91,26,42.91
	c-2.434,0-4.155-2.378-3.399-4.692L25.301,29.967z"/>
<path fill="#FCAE30" d="M26.003,10.727c-12.094,0-21.902,9.83-21.902,21.965c0,0.086,0.007,0.17,0.007,0.255h8.46
	c-0.001-0.085-0.014-0.167-0.014-0.255c0-7.443,6.019-13.481,13.449-13.481c7.409,0,13.412,6.008,13.444,13.423l8.452-0.079
	C47.825,20.486,38.049,10.727,26.003,10.727z"/>
</svg>
