<svg width="52" height="52" viewBox="0 0 52 52" fill="none" xmlns="http://www.w3.org/2000/svg">
<path d="M5 11C5 8.79086 6.79086 7 9 7H41C43.2091 7 45 8.79086 45 11V41C45 43.2091 43.2091 45 41 45H9C6.79086 45 5 43.2091 5 41V11Z" fill="#C2E1C9"/>
<path d="M15 23C17.2091 23 19 21.2091 19 19C19 16.7909 17.2091 15 15 15C12.7909 15 11 16.7909 11 19C11 21.2091 12.7909 23 15 23Z" fill="#33AA4D"/>
<path d="M22.166 30.6439C21.7657 31.1615 20.9843 31.1615 20.584 30.6439L18.041 27.3561C17.6407 26.8385 16.8593 26.8385 16.459 27.3561L10.2466 35.3882C9.73829 36.0454 10.2067 37 11.0376 37H39.9624C40.7933 37 41.2617 36.0454 40.7534 35.3882L30.416 22.0227C30.0157 21.5051 29.2343 21.5051 28.834 22.0227L22.166 30.6439Z" fill="#33AA4D"/>
<mask id="mask0_7130_10586" style="mask-type:alpha" maskUnits="userSpaceOnUse" x="10" y="21" width="31" height="16">
<path d="M22.166 30.6439C21.7657 31.1615 20.9843 31.1615 20.584 30.6439L18.041 27.3561C17.6407 26.8385 16.8593 26.8385 16.459 27.3561L10.2466 35.3882C9.73829 36.0454 10.2067 37 11.0376 37H39.9624C40.7933 37 41.2617 36.0454 40.7534 35.3882L30.416 22.0227C30.0157 21.5051 29.2343 21.5051 28.834 22.0227L22.166 30.6439Z" fill="#33AA4D"/>
</mask>
<g mask="url(#mask0_7130_10586)">
<path d="M17 38L22 31L19 26H16L8 31V37.5L17 38Z" fill="#1F8636"/>
</g>
</svg>
