<?xml version="1.0" encoding="utf-8"?>
<!-- Generator: Adobe Illustrator 16.0.3, SVG Export Plug-In . SVG Version: 6.00 Build 0)  -->
<!DOCTYPE svg PUBLIC "-//W3C//DTD SVG 1.1//EN" "http://www.w3.org/Graphics/SVG/1.1/DTD/svg11.dtd">
<svg version="1.1" xmlns="http://www.w3.org/2000/svg" xmlns:xlink="http://www.w3.org/1999/xlink" x="0px" y="0px" width="52px"
	 height="52px" viewBox="0 0 52 52" enable-background="new 0 0 52 52" xml:space="preserve">
<g id="Layer_1">
	<linearGradient id="SVGID_1_" gradientUnits="userSpaceOnUse" x1="68.3457" y1="14.7476" x2="68.3457" y2="15.6585">
		<stop  offset="0" style="stop-color:#EAEEFD"/>
		<stop  offset="1" style="stop-color:#CAB8F7"/>
	</linearGradient>
	<path display="none" fill="url(#SVGID_1_)" d="M72.031,14.125h-7.37c-0.503,0-0.911,0.408-0.911,0.91
		c0,0.503,0.408,0.911,0.911,0.911h7.37c0.503,0,0.91-0.408,0.91-0.911C72.941,14.533,72.534,14.125,72.031,14.125z"/>
	<linearGradient id="SVGID_2_" gradientUnits="userSpaceOnUse" x1="68.3457" y1="20.8618" x2="68.3457" y2="21.7728">
		<stop  offset="0" style="stop-color:#EAEEFD"/>
		<stop  offset="1" style="stop-color:#CAB8F7"/>
	</linearGradient>
	<path display="none" fill="url(#SVGID_2_)" d="M72.031,20.239h-7.37c-0.503,0-0.911,0.408-0.911,0.911
		c0,0.502,0.408,0.91,0.911,0.91h7.37c0.503,0,0.91-0.408,0.91-0.91C72.941,20.647,72.534,20.239,72.031,20.239z"/>
	<linearGradient id="SVGID_3_" gradientUnits="userSpaceOnUse" x1="65.7441" y1="26.9756" x2="65.7441" y2="27.8868">
		<stop  offset="0" style="stop-color:#EAEEFD"/>
		<stop  offset="1" style="stop-color:#CAB8F7"/>
	</linearGradient>
	<path display="none" fill="url(#SVGID_3_)" d="M66.828,26.354h-2.167c-0.503,0-0.911,0.409-0.911,0.911
		c0,0.503,0.408,0.91,0.911,0.91h2.167c0.503,0,0.91-0.407,0.91-0.91C67.738,26.763,67.331,26.354,66.828,26.354z"/>
	<path display="none" fill="#FFFFFF" d="M75.684,56.096c-0.608,0-1.1,0.492-1.1,1.103v4.337c0,0.608,0.491,1.103,1.1,1.103
		s1.103-0.494,1.103-1.103v-4.337C76.786,56.588,76.292,56.096,75.684,56.096z M79.109,53.768c-0.61,0-1.104,0.492-1.104,1.101
		v6.667c0,0.608,0.493,1.103,1.104,1.103c0.608,0,1.101-0.494,1.101-1.103v-6.667C80.21,54.26,79.718,53.768,79.109,53.768z
		 M82.533,50.427c-0.608,0-1.102,0.492-1.102,1.102v10.007c0,0.608,0.493,1.103,1.102,1.103s1.102-0.494,1.102-1.103V51.528
		C83.635,50.919,83.142,50.427,82.533,50.427z M85.956,54.178c-0.607,0-1.102,0.493-1.102,1.102v6.256
		c0,0.608,0.494,1.103,1.102,1.103c0.608,0,1.103-0.494,1.103-1.103v-6.256C87.059,54.671,86.564,54.178,85.956,54.178z
		 M89.38,56.096c-0.608,0-1.103,0.492-1.103,1.103v4.337c0,0.608,0.494,1.103,1.103,1.103c0.609,0,1.103-0.494,1.103-1.103v-4.337
		C90.482,56.588,89.989,56.096,89.38,56.096z"/>
	
		<image display="none" overflow="visible" width="53" height="38" xlink:href="7065E072.jpg"  transform="matrix(0.7902 0 0 0.7902 5.0591 10.9854)">
	</image>
	<g id="icons" display="none">
		<g display="inline">
			<path opacity="0.7" fill="#FFFFFF" d="M31.272,23.914l-1.252,1.254c-2.264-2.264-5.98-2.223-8.126-0.078l-1.252-1.252
				C23.502,20.977,28.175,20.816,31.272,23.914z"/>
			<path fill="#FFFFFF" d="M33.987,21.201l-1.253,1.252c-3.813-3.813-9.723-3.874-13.537-0.061l-1.252-1.252
				C22.354,16.731,29.697,16.911,33.987,21.201z"/>
			<path opacity="0.5" fill="#FFFFFF" d="M22.965,26.161l1.287,1.288c1.066-0.599,2.386-0.581,3.439,0.049l1.28-1.282
				C27.188,24.932,24.768,24.913,22.965,26.161z"/>
		</g>
	</g>
	<g display="none">
		<path fill="#3A70DE" d="M20.4,40.101c0,0.408-0.33,0.738-0.737,0.738h-1.555c-0.407,0-0.738-0.33-0.738-0.738v-3.039
			c0-0.408,0.331-0.738,0.738-0.738h1.555c0.407,0,0.737,0.33,0.737,0.738V40.101z"/>
		<path fill="#3A70DE" d="M34.5,40.101c0,0.408-0.33,0.738-0.738,0.738h-1.555c-0.406,0-0.736-0.33-0.736-0.738v-3.039
			c0-0.408,0.33-0.738,0.736-0.738h1.555c0.408,0,0.738,0.33,0.738,0.738V40.101z"/>
		<path display="inline" fill="#96C6FF" d="M32.629,31.864c0,1.631-2.359,2.775-4.137,2.775h-5.155c-1.778,0-4.143-1.26-4.143-2.889
			l0.923-3.768c0.542-1.685,0.921-2.432,2.699-2.432h6.197c1.777,0,2.187,0.781,2.697,2.432L32.629,31.864z"/>
		<path display="inline" fill="#577DFF" d="M34.645,37.034c0,0.814-0.049,1.18-0.998,1.18H18.429c-0.949,0-1.167-0.088-1.167-1.475
			V32.05c0-0.816,0.77-1.477,1.718-1.477h13.946c0.949,0,1.719,0.66,1.719,1.477V37.034z"/>
	</g>
	<path fill="#8692A0" d="M51.896,40.898c0,1.938-1.568,3.51-3.508,3.51H3.574c-1.937,0-3.507-1.571-3.507-3.51V9.378
		c0-1.938,1.57-3.509,3.507-3.509h44.814c1.939,0,3.508,1.571,3.508,3.509V40.898z"/>
	<path fill="#404B58" d="M48.822,39.584c0,1.021-0.852,1.851-1.896,1.851H5.016c-1.047,0-1.896-0.829-1.896-1.851V10.75
		c0-1.023,0.849-1.853,1.896-1.853h41.911c1.044,0,1.896,0.83,1.896,1.853V39.584z"/>
	
		<path opacity="0.7" fill="none" stroke="#FFFFFF" stroke-width="3" stroke-linecap="round" stroke-linejoin="round" stroke-miterlimit="10" d="
		M8.924,28.649c1.891-8.485,9.026-14.796,17.54-14.796c8.495,0,15.618,6.282,17.527,14.739"/>
	
		<path opacity="0.3" fill="none" stroke="#FFFFFF" stroke-width="3" stroke-linecap="round" stroke-linejoin="round" stroke-miterlimit="10" d="
		M14.975,33.814c0-6.785,5.143-12.285,11.488-12.285c6.345,0,11.488,5.5,11.488,12.285"/>
	<path fill="#5076FF" d="M12.554,41.47v-1.276c0-7.268,6.228-13.161,13.911-13.161l0,0c7.68,0,13.908,5.894,13.908,13.161v1.276"/>
	<path fill="#F4F4BD" d="M21.357,28.219c0.817,0.763,0.756,2.157-0.137,3.115l-2.059,2.207c-0.893,0.958-2.281,1.116-3.099,0.353
		l0,0c-0.816-0.762-0.755-2.156,0.139-3.113l2.058-2.208C19.153,27.614,20.541,27.457,21.357,28.219L21.357,28.219z"/>
	<path fill="#F4F4BD" d="M36.654,33.619c-0.796,0.784-2.188,0.66-3.104-0.272l-2.114-2.156c-0.918-0.935-1.015-2.326-0.216-3.109
		l0,0c0.797-0.783,2.187-0.662,3.104,0.272l2.116,2.156C37.355,31.444,37.454,32.836,36.654,33.619L36.654,33.619z"/>
	<path fill="#62C2FE" d="M15.708,41.47v-5.288c0-5.349,4.812-9.688,10.746-9.688l0,0c5.932,0,10.744,4.339,10.744,9.688v5.288"/>
</g>
<g id="묐迹_1" display="none">
</g>
<g id="Illustration" display="none">
	<g id="Self-parking_car_system" display="inline">
		<g>
			<path fill="#FFFFFF" d="M20.512,26.125c-0.021-0.011-0.043-0.021-0.07-0.025c-0.038-0.011-0.084-0.016-0.13-0.016
				c-0.113,0-0.231,0.03-0.322,0.082c-0.104,0.059-0.164,0.141-0.162,0.227c0.003,0.075,0.048,0.139,0.128,0.178
				c0.584,0.283,1.265,0.525,2.02,0.717c1.006,0.254,2.093,0.408,3.229,0.459c0.007,0,0.017,0,0.025,0
				c0.164,0,0.373-0.068,0.453-0.199c0.034-0.057,0.043-0.117,0.021-0.174c-0.027-0.066-0.094-0.117-0.185-0.139
				c-0.034-0.01-0.068-0.014-0.104-0.016c-1.063-0.047-2.079-0.189-3.021-0.428C21.69,26.611,21.058,26.388,20.512,26.125z"/>
			<path fill="#FFFFFF" d="M20.749,20.931c-0.806,0.302-1.475,0.668-1.988,1.089c-0.523,0.428-0.859,0.89-1.003,1.374
				c-0.142,0.469-0.094,0.941,0.139,1.403c0.029,0.062,0.091,0.104,0.178,0.125c0.04,0.012,0.084,0.016,0.132,0.016
				c0.057,0,0.115-0.007,0.175-0.023c0.141-0.036,0.25-0.111,0.291-0.2c0.022-0.054,0.022-0.111-0.002-0.161
				c-0.189-0.378-0.228-0.76-0.116-1.135c0.116-0.391,0.394-0.769,0.821-1.119c0.437-0.357,1.01-0.671,1.703-0.93
				c0.678-0.255,1.454-0.453,2.3-0.584c0.229-0.037,0.389-0.166,0.378-0.31c-0.007-0.091-0.082-0.164-0.198-0.193
				c-0.038-0.009-0.084-0.016-0.13-0.016c-0.034,0-0.07,0.004-0.106,0.009C22.382,20.424,21.516,20.645,20.749,20.931z"/>
			<path fill="#FC75B1" d="M31.987,21.982c0.027,0.016,0.06,0.027,0.093,0.037c0.041,0.009,0.085,0.016,0.133,0.016
				c0.102,0,0.211-0.025,0.298-0.068c0.113-0.057,0.182-0.141,0.187-0.229c0.002-0.07-0.037-0.134-0.104-0.177
				c-0.696-0.417-1.561-0.755-2.57-1.012c-0.751-0.189-1.557-0.325-2.394-0.403c-0.018,0-0.038-0.002-0.057-0.002
				c-0.178,0-0.357,0.073-0.437,0.177c-0.046,0.059-0.057,0.125-0.036,0.187c0.024,0.07,0.091,0.123,0.187,0.148
				c0.024,0.007,0.05,0.011,0.077,0.014c0.782,0.07,1.537,0.198,2.24,0.375C30.543,21.281,31.346,21.598,31.987,21.982z"/>
			<path fill="#FFFFFF" d="M20.689,28.338c1.515,0.383,3.155,0.594,4.872,0.627h0.012c0.173,0,0.387-0.072,0.459-0.211
				c0.03-0.055,0.034-0.115,0.012-0.166c-0.029-0.064-0.094-0.111-0.182-0.135c-0.037-0.01-0.078-0.014-0.121-0.016
				c-1.608-0.029-3.212-0.236-4.633-0.596c-1.203-0.305-2.241-0.705-3.085-1.188c-0.024-0.016-0.055-0.027-0.089-0.037
				c-0.038-0.008-0.084-0.014-0.129-0.014c-0.104,0-0.217,0.025-0.305,0.07c-0.114,0.057-0.178,0.141-0.18,0.23
				c-0.003,0.07,0.036,0.135,0.106,0.176C18.326,27.594,19.423,28.016,20.689,28.338z"/>
			<path fill="#FFFFFF" d="M16.425,21.429c-0.734,0.601-1.188,1.253-1.347,1.936c-0.154,0.662-0.029,1.319,0.371,1.959
				c0.031,0.052,0.091,0.091,0.168,0.109c0.041,0.012,0.084,0.017,0.132,0.017c0.063,0,0.13-0.009,0.193-0.028
				c0.142-0.041,0.243-0.116,0.277-0.209c0.023-0.057,0.019-0.114-0.014-0.165c-0.348-0.553-0.457-1.119-0.325-1.681
				c0.137-0.582,0.525-1.14,1.16-1.658c0.644-0.525,1.497-0.98,2.538-1.349c1.021-0.362,2.177-0.628,3.438-0.792
				c0.193-0.023,0.394-0.134,0.396-0.293c0.002-0.078-0.048-0.173-0.195-0.212c-0.041-0.009-0.084-0.016-0.132-0.016
				c-0.03,0-0.06,0.002-0.089,0.007c-1.358,0.175-2.611,0.464-3.722,0.857C18.11,20.324,17.15,20.835,16.425,21.429z"/>
			<path fill="#FC75B1" d="M31.582,26.77c0.658-0.275,1.215-0.594,1.656-0.956c0.446-0.366,0.758-0.759,0.928-1.168
				c0.169-0.4,0.196-0.808,0.089-1.212c-0.022-0.077-0.091-0.134-0.193-0.162c-0.038-0.009-0.084-0.014-0.13-0.014
				c-0.045,0-0.093,0.005-0.139,0.014c-0.143,0.03-0.262,0.098-0.313,0.185c-0.032,0.05-0.041,0.102-0.025,0.152
				c0.087,0.325,0.063,0.65-0.07,0.971c-0.139,0.332-0.396,0.653-0.762,0.954c-0.373,0.305-0.849,0.58-1.413,0.816
				c-0.553,0.23-1.183,0.419-1.874,0.566c-0.144,0.031-0.262,0.1-0.312,0.186c-0.029,0.051-0.039,0.105-0.022,0.154
				c0.022,0.076,0.091,0.131,0.19,0.156c0.039,0.01,0.085,0.016,0.13,0.016c0.048,0,0.096-0.006,0.144-0.016
				C30.24,27.25,30.952,27.033,31.582,26.77z"/>
			<path fill="#FC75B1" d="M35.572,26.404c0.661-0.541,1.099-1.125,1.294-1.738c0.191-0.594,0.152-1.192-0.113-1.781
				c-0.03-0.063-0.094-0.109-0.183-0.132c-0.041-0.011-0.084-0.016-0.132-0.016c-0.055,0-0.111,0.007-0.168,0.021
				c-0.144,0.036-0.253,0.109-0.296,0.198c-0.025,0.055-0.027,0.111-0.005,0.162c0.228,0.502,0.262,1.014,0.101,1.515
				c-0.169,0.524-0.542,1.027-1.114,1.493c-0.578,0.475-1.333,0.891-2.241,1.238c-0.887,0.34-1.896,0.607-3,0.791
				c-0.231,0.039-0.387,0.172-0.371,0.316c0.012,0.09,0.085,0.158,0.198,0.186c0.039,0.01,0.084,0.016,0.13,0.016
				c0.038,0,0.075-0.002,0.113-0.01c1.196-0.199,2.298-0.49,3.269-0.863C34.07,27.408,34.917,26.941,35.572,26.404z"/>
			<path fill="#FC75B1" d="M31.308,19.496c-1.265-0.321-2.628-0.521-4.052-0.596c-0.011-0.002-0.022-0.002-0.034-0.002
				c-0.161,0-0.366,0.066-0.447,0.193c-0.037,0.057-0.046,0.121-0.023,0.178c0.027,0.068,0.091,0.118,0.185,0.141
				c0.029,0.007,0.063,0.011,0.098,0.013c1.355,0.073,2.652,0.264,3.855,0.569c1.419,0.359,2.643,0.869,3.544,1.472
				c0.029,0.021,0.063,0.034,0.104,0.045c0.039,0.009,0.084,0.016,0.132,0.016c0.098,0,0.198-0.023,0.284-0.064
				c0.121-0.054,0.191-0.139,0.198-0.228c0.007-0.07-0.027-0.134-0.091-0.175C34.089,20.406,32.826,19.88,31.308,19.496z"/>
			<path fill="#FFFFFF" d="M14.64,27.303c-0.039-0.012-0.082-0.016-0.13-0.016c-0.101,0-0.203,0.021-0.289,0.063
				c-0.118,0.057-0.188,0.139-0.195,0.23c-0.005,0.068,0.029,0.131,0.096,0.174c1.271,0.826,2.901,1.496,4.852,1.99
				c2.16,0.547,4.601,0.836,7.056,0.838c0.175,0,0.397-0.076,0.466-0.221c0.025-0.055,0.025-0.111,0.002-0.16
				c-0.029-0.063-0.093-0.109-0.18-0.131c-0.041-0.012-0.084-0.016-0.132-0.016c-2.36,0-4.71-0.279-6.794-0.809
				c-1.869-0.475-3.435-1.113-4.649-1.9C14.714,27.324,14.678,27.311,14.64,27.303z"/>
			<path fill="#FFFFFF" d="M13.304,20.638c-1.017,0.833-1.621,1.735-1.799,2.682c-0.173,0.912,0.062,1.818,0.693,2.692
				c0.034,0.045,0.089,0.08,0.162,0.098c0.041,0.011,0.084,0.016,0.132,0.016c0.068,0,0.139-0.009,0.204-0.032
				c0.142-0.043,0.239-0.121,0.269-0.211c0.021-0.059,0.012-0.118-0.024-0.168c-0.569-0.788-0.783-1.598-0.628-2.41
				c0.157-0.839,0.698-1.643,1.608-2.386c0.919-0.753,2.153-1.394,3.666-1.908c1.477-0.5,3.146-0.855,4.959-1.056
				c0.193-0.021,0.396-0.125,0.411-0.282c0.007-0.082-0.041-0.185-0.197-0.226c-0.039-0.009-0.085-0.014-0.13-0.014
				c-0.025,0-0.05,0-0.075,0.005c-1.915,0.209-3.685,0.587-5.257,1.119C15.656,19.114,14.312,19.814,13.304,20.638z"/>
			<path fill="#FFFFFF" d="M38.692,27.195c0.946-0.773,1.538-1.609,1.759-2.488c0.214-0.849,0.075-1.697-0.414-2.522
				c-0.032-0.055-0.091-0.096-0.173-0.116c-0.039-0.009-0.084-0.014-0.132-0.014c-0.062,0-0.125,0.009-0.187,0.025
				c-0.142,0.039-0.246,0.119-0.282,0.207c-0.022,0.057-0.019,0.114,0.012,0.164c0.437,0.741,0.562,1.497,0.375,2.247
				c-0.198,0.781-0.726,1.525-1.574,2.218c-0.855,0.697-1.985,1.305-3.361,1.801c-1.34,0.482-2.861,0.842-4.518,1.07
				c-0.195,0.027-0.394,0.139-0.392,0.299c0,0.098,0.073,0.174,0.196,0.205c0.041,0.012,0.084,0.016,0.132,0.016
				c0.029,0,0.062-0.002,0.093-0.006c1.756-0.242,3.371-0.623,4.802-1.141C36.522,28.623,37.756,27.961,38.692,27.195z"/>
			<path fill="#FFFFFF" d="M37.794,20.833c0.041,0.009,0.084,0.016,0.132,0.016c0.094,0,0.191-0.021,0.275-0.059
				c0.123-0.052,0.198-0.136,0.209-0.228c0.007-0.066-0.022-0.129-0.084-0.175c-1.301-0.953-3.134-1.747-5.3-2.297
				c-1.944-0.491-4.046-0.771-6.248-0.828c-0.004,0-0.011,0-0.016,0c-0.171,0-0.382,0.071-0.457,0.207
				c-0.032,0.055-0.037,0.114-0.014,0.168c0.027,0.066,0.093,0.114,0.182,0.136c0.036,0.009,0.075,0.014,0.116,0.016
				c2.12,0.055,4.145,0.323,6.019,0.796c2.079,0.528,3.832,1.288,5.074,2.195C37.712,20.804,37.751,20.822,37.794,20.833z"/>
			<path fill="#FFFFFF" d="M26.922,32.223c-0.039-0.012-0.084-0.016-0.13-0.016h-0.009c-0.185,0.002-0.368,0.004-0.553,0.004
				c-3.176,0-6.335-0.375-9.137-1.084c-2.729-0.691-5.048-1.684-6.706-2.869c-0.031-0.023-0.068-0.039-0.111-0.051
				c-0.041-0.012-0.084-0.016-0.132-0.016c-0.096,0-0.193,0.021-0.277,0.059c-0.12,0.055-0.195,0.137-0.205,0.229
				c-0.007,0.068,0.023,0.131,0.085,0.174c1.719,1.23,4.114,2.256,6.928,2.971c2.882,0.729,6.133,1.113,9.401,1.113
				c0.188,0,0.379,0,0.568-0.002c0.175-0.002,0.396-0.084,0.459-0.227c0.023-0.053,0.023-0.109-0.002-0.158
				C27.072,32.289,27.011,32.242,26.922,32.223z"/>
			<path fill="#FFFFFF" d="M9.749,19.86c1.29-1.056,3.034-1.949,5.184-2.654c2.061-0.678,4.48-1.163,6.996-1.401
				c0.191-0.018,0.396-0.118,0.421-0.275c0.012-0.082-0.031-0.193-0.195-0.234c-0.041-0.009-0.084-0.014-0.132-0.014
				c-0.021,0-0.041,0-0.063,0.002c-2.657,0.253-5.113,0.746-7.304,1.465c-2.284,0.751-4.143,1.704-5.522,2.834
				c-1.393,1.137-2.197,2.372-2.397,3.668c-0.096,0.624-0.046,1.253,0.147,1.873c0.191,0.613,0.521,1.215,0.985,1.794
				c0.034,0.041,0.086,0.074,0.154,0.09c0.041,0.01,0.084,0.018,0.132,0.018c0.073,0,0.146-0.012,0.216-0.037
				c0.139-0.043,0.234-0.123,0.262-0.213c0.017-0.063,0.005-0.121-0.034-0.172c-0.875-1.095-1.23-2.233-1.053-3.379
				C7.727,22.039,8.469,20.908,9.749,19.86z"/>
			<path fill="#FFFFFF" d="M44.393,21.266c-0.034-0.048-0.091-0.082-0.164-0.103c-0.04-0.009-0.084-0.014-0.132-0.014
				c-0.065,0-0.136,0.009-0.202,0.03c-0.141,0.043-0.238,0.121-0.271,0.211c-0.021,0.059-0.012,0.118,0.022,0.166
				c0.732,1.055,0.994,2.138,0.775,3.223c-0.225,1.125-0.957,2.197-2.174,3.193c-1.227,1.004-2.864,1.861-4.87,2.551
				c-1.951,0.672-4.158,1.15-6.556,1.426c-0.193,0.023-0.396,0.131-0.406,0.287c-0.007,0.082,0.043,0.182,0.197,0.221
				c0.039,0.012,0.082,0.016,0.13,0.016c0.025,0,0.052-0.002,0.077-0.004c2.5-0.289,4.804-0.793,6.852-1.494
				c2.133-0.732,3.88-1.65,5.192-2.725c1.321-1.08,2.117-2.25,2.365-3.479C45.467,23.583,45.187,22.405,44.393,21.266z"/>
			<path fill="#FFFFFF" d="M25.864,15.609c0.041,0.009,0.084,0.013,0.13,0.016c3.098,0.016,6.178,0.391,8.909,1.085
				c2.966,0.75,5.425,1.847,7.108,3.168c0.031,0.025,0.072,0.043,0.12,0.055c0.041,0.011,0.084,0.016,0.132,0.016
				c0.091,0,0.185-0.019,0.267-0.055c0.125-0.052,0.204-0.134,0.216-0.225c0.009-0.068-0.019-0.13-0.075-0.175
				c-1.747-1.372-4.287-2.506-7.349-3.282c-2.808-0.712-5.979-1.096-9.167-1.115h-0.002c-0.173,0-0.394,0.075-0.464,0.219
				c-0.027,0.052-0.03,0.111-0.005,0.161C25.712,15.538,25.777,15.586,25.864,15.609z"/>
		</g>
		<g>
			<linearGradient id="SVGID_4_" gradientUnits="userSpaceOnUse" x1="33.9199" y1="18.8633" x2="33.571" y2="21.5205">
				<stop  offset="0" style="stop-color:#444B8C"/>
				<stop  offset="0.9964" style="stop-color:#26264F"/>
			</linearGradient>
			<path fill="url(#SVGID_4_)" d="M35.515,20.381l-3.522,0.195c-0.189,0.009-0.342-0.121-0.342-0.293v-0.011
				c0-0.173,0.152-0.318,0.342-0.33l3.522-0.185c0.185-0.009,0.333,0.119,0.333,0.287v0.014
				C35.848,20.226,35.699,20.372,35.515,20.381z"/>
		</g>
		<g>
			<g>
				<path fill="#FFFFFF" d="M38.356,21.015c0,0,0.966,1.333,0.575,3.002c-0.068,0.293-0.212,0.562-0.414,0.785
					c-0.931,1.018-4.355,4.799-6.83,4.627c-0.08-0.008-0.23-0.061-0.306-0.086c-0.022-0.008-0.093-0.039-0.093-0.039l0.116-2.817
					L38.356,21.015z"/>
				<path fill="#FFFFFF" d="M38.356,21.015c-5.344-6.703-12.59-9.5-16.173-10.533c-1.316-0.38-2.736-0.159-3.873,0.609l-4.536,3.066
					l17.79,12.596c1.476,0.174,3.38-1.009,5.481-2.384C39.149,22.999,38.356,21.015,38.356,21.015z"/>
				<g>
					
						<linearGradient id="SVGID_5_" gradientUnits="userSpaceOnUse" x1="-397.1362" y1="-77.9048" x2="-384.1069" y2="-77.9048" gradientTransform="matrix(0.9973 -0.0733 0.0733 0.9973 424.2955 67.5885)">
						<stop  offset="0" style="stop-color:#444B8C"/>
						<stop  offset="0.9964" style="stop-color:#3E4177"/>
					</linearGradient>
					<path fill="url(#SVGID_5_)" d="M29.203,13.396c-0.719,1.076-2.588,3.175-6.767,4.463l5.873,5.838c0,0,6.103-2.763,7.183-5.771
						C35.74,18.156,32.636,14.933,29.203,13.396z"/>
				</g>
				
					<linearGradient id="SVGID_6_" gradientUnits="userSpaceOnUse" x1="-383.292" y1="-75.105" x2="-381.4023" y2="-75.105" gradientTransform="matrix(0.9973 -0.0733 0.0733 0.9973 424.2955 67.5885)">
					<stop  offset="0" style="stop-color:#311944"/>
					<stop  offset="1" style="stop-color:#893976"/>
				</linearGradient>
				<path fill="url(#SVGID_6_)" d="M38.403,22.642c0.248-0.887-0.047-1.626-0.047-1.626c-0.633-0.793-1.292-1.533-1.97-2.22
					C36.461,19.642,36.816,21.409,38.403,22.642z"/>
				<g opacity="0.3">
					<path fill="#FFFFFF" d="M32.936,23.197c-2.181-2.675-0.448-5.475-2.646-7.531c-2.891-2.705-7.72,0.425-11.375-2.582
						c-0.553-0.457-0.987-0.978-1.326-1.506l-3.814,2.58l17.79,12.596c1.178,0.139,2.629-0.585,4.235-1.583
						C34.689,24.752,33.693,24.125,32.936,23.197z"/>
				</g>
				<linearGradient id="SVGID_7_" gradientUnits="userSpaceOnUse" x1="12.2251" y1="21.667" x2="32.1914" y2="21.667">
					<stop  offset="0.494" style="stop-color:#EBEFF2"/>
					<stop  offset="1" style="stop-color:#FFFFFF"/>
				</linearGradient>
				<path fill="url(#SVGID_7_)" d="M13.222,22.139c0,0-2.574-4.642,0.553-7.981c0,0,1.245-1.551,7.363,1.778
					c6.118,3.333,10.427,10.818,10.427,10.818c0.721,1.602,0.871,2.652,0.182,2.783L13.222,22.139z"/>
				<g>
					
						<linearGradient id="SVGID_8_" gradientUnits="userSpaceOnUse" x1="-399.9321" y1="-82.3174" x2="-398.5881" y2="-79.9502" gradientTransform="matrix(0.9973 -0.0733 0.0733 0.9973 424.2955 67.5885)">
						<stop  offset="0" style="stop-color:#444B8C"/>
						<stop  offset="0.9964" style="stop-color:#3E4177"/>
					</linearGradient>
					<path fill="url(#SVGID_8_)" d="M26.831,22.512c-1.263-1.712-3.801-4.722-7.117-6.417l1.489,4.779
						c1.854,0.91,3.808,1.772,5.086,2.323C26.713,23.378,27.104,22.885,26.831,22.512z"/>
					
						<linearGradient id="SVGID_9_" gradientUnits="userSpaceOnUse" x1="-402.1797" y1="-81.042" x2="-400.8354" y2="-78.6744" gradientTransform="matrix(0.9973 -0.0733 0.0733 0.9973 424.2955 67.5885)">
						<stop  offset="0" style="stop-color:#444B8C"/>
						<stop  offset="0.9964" style="stop-color:#3E4177"/>
					</linearGradient>
					<path fill="url(#SVGID_9_)" d="M16.44,14.979c-0.394-0.066-0.78,0.166-0.896,0.548c-0.166,0.546-0.133,1.421,0.95,2.52
						c0.662,0.673,2.24,1.583,4.015,2.479l-1.485-4.758C18.203,15.406,17.342,15.131,16.44,14.979z"/>
				</g>
				
					<linearGradient id="SVGID_10_" gradientUnits="userSpaceOnUse" x1="-399.0811" y1="-77.3228" x2="-399.3219" y2="-75.6572" gradientTransform="matrix(0.9973 -0.0733 0.0733 0.9973 424.2955 67.5885)">
					<stop  offset="0" style="stop-color:#444B8C"/>
					<stop  offset="0.9964" style="stop-color:#3E4177"/>
				</linearGradient>
				<path fill="url(#SVGID_10_)" d="M19.793,20.94l1.417,0.826c0.193,0.111,0.137,0.405-0.086,0.437
					c-0.291,0.039-0.758-0.157-1.438-1.149C19.639,20.983,19.719,20.897,19.793,20.94z"/>
				
					<linearGradient id="SVGID_11_" gradientUnits="userSpaceOnUse" x1="-407.3472" y1="-80.7373" x2="-405.1548" y2="-80.7373" gradientTransform="matrix(0.9973 -0.0733 0.0733 0.9973 424.2955 67.5885)">
					<stop  offset="0" style="stop-color:#311944"/>
					<stop  offset="1" style="stop-color:#893976"/>
				</linearGradient>
				<path fill="url(#SVGID_11_)" d="M14.412,18.081c-0.103-0.969-0.792-2.32-1.258-3.139c-0.705,1.073-0.938,2.229-0.929,3.291
					C13.047,18.611,14.523,19.152,14.412,18.081z"/>
				<g>
					
						<linearGradient id="SVGID_12_" gradientUnits="userSpaceOnUse" x1="-1529.8525" y1="-924.5928" x2="-1526.8242" y2="-924.5928" gradientTransform="matrix(0.8869 -0.462 0.462 0.8869 1809.7385 141.2327)">
						<stop  offset="0" style="stop-color:#444B8C"/>
						<stop  offset="0.9964" style="stop-color:#3E4177"/>
					</linearGradient>
					<path fill="url(#SVGID_12_)" d="M28.437,26.604c0.519,0.994,0.339,2.115-0.404,2.502c-0.742,0.387-1.764-0.107-2.282-1.104
						s-0.336-2.113,0.405-2.5C26.896,25.115,27.918,25.609,28.437,26.604z"/>
					
						<linearGradient id="SVGID_13_" gradientUnits="userSpaceOnUse" x1="-1528.5137" y1="-926.3447" x2="-1528.7852" y2="-920.9491" gradientTransform="matrix(0.8869 -0.462 0.462 0.8869 1809.7385 141.2327)">
						<stop  offset="0" style="stop-color:#444B8C"/>
						<stop  offset="0.9964" style="stop-color:#3E4177"/>
					</linearGradient>
					<path fill="url(#SVGID_13_)" d="M28.259,26.85c0.52,0.994,0.337,2.115-0.404,2.502s-1.763-0.107-2.281-1.104
						c-0.519-0.994-0.339-2.114,0.404-2.5C26.72,25.36,27.74,25.854,28.259,26.85z"/>
					
						<ellipse transform="matrix(0.8872 -0.4614 0.4614 0.8872 -9.6741 15.5255)" fill="#FFFFFF" cx="26.915" cy="27.548" rx="1.043" ry="1.399"/>
				</g>
				<g>
					
						<linearGradient id="SVGID_14_" gradientUnits="userSpaceOnUse" x1="-1538.1909" y1="-934.6411" x2="-1535.1587" y2="-934.6411" gradientTransform="matrix(0.8869 -0.462 0.462 0.8869 1809.7385 141.2327)">
						<stop  offset="0" style="stop-color:#444B8C"/>
						<stop  offset="0.9964" style="stop-color:#3E4177"/>
					</linearGradient>
					<path fill="url(#SVGID_14_)" d="M16.402,21.543c0.516,0.996,0.336,2.115-0.405,2.502c-0.744,0.387-1.765-0.107-2.283-1.101
						c-0.519-0.997-0.337-2.116,0.404-2.502C14.859,20.056,15.884,20.549,16.402,21.543z"/>
					
						<linearGradient id="SVGID_15_" gradientUnits="userSpaceOnUse" x1="-1536.8511" y1="-936.3926" x2="-1537.1224" y2="-930.9996" gradientTransform="matrix(0.8869 -0.462 0.462 0.8869 1809.7385 141.2327)">
						<stop  offset="0" style="stop-color:#444B8C"/>
						<stop  offset="0.9964" style="stop-color:#3E4177"/>
					</linearGradient>
					<path fill="url(#SVGID_15_)" d="M16.223,21.789c0.519,0.997,0.336,2.115-0.405,2.502s-1.763-0.107-2.281-1.101
						c-0.519-0.997-0.339-2.116,0.404-2.502C14.683,20.301,15.704,20.795,16.223,21.789z"/>
					
						<ellipse transform="matrix(0.8869 -0.4619 0.4619 0.8869 -8.706 9.4158)" fill="#FFFFFF" cx="14.878" cy="22.489" rx="1.044" ry="1.401"/>
				</g>
				
					<linearGradient id="SVGID_16_" gradientUnits="userSpaceOnUse" x1="-388.7749" y1="-73.6812" x2="-388.4539" y2="-69.5076" gradientTransform="matrix(0.9973 -0.0733 0.0733 0.9973 424.2955 67.5885)">
					<stop  offset="0" style="stop-color:#311944"/>
					<stop  offset="1" style="stop-color:#893976"/>
				</linearGradient>
				<path fill="url(#SVGID_16_)" d="M32.165,24.864c-1.427-0.384-2.65-0.182-3.287-0.011l2.687,1.901
					c0.803,0.096,1.735-0.213,2.754-0.733C34.18,25.536,33.579,25.247,32.165,24.864z"/>
			</g>
		</g>
	</g>
</g>
</svg>
