<svg width="52" height="52" viewBox="0 0 52 52" fill="none" xmlns="http://www.w3.org/2000/svg">
<path d="M33.0819 2.12601C33.4294 1.32126 34.5706 1.32126 34.9181 2.12601L36.887 6.68563C37.1259 7.2389 37.7963 7.45671 38.3148 7.14954L42.5878 4.61805C43.3419 4.17126 44.2651 4.84198 44.0732 5.6973L42.9861 10.5434C42.8541 11.1315 43.2685 11.7017 43.8685 11.758L48.8134 12.2215C49.6861 12.3034 50.0387 13.3886 49.3808 13.9678L45.6527 17.2494C45.2004 17.6476 45.2004 18.3524 45.6527 18.7506L49.3808 22.0322C50.0387 22.6114 49.6861 23.6966 48.8134 23.7785L43.8685 24.242C43.2685 24.2983 42.8541 24.8685 42.9861 25.4566L44.0732 30.3027C44.2651 31.158 43.3419 31.8287 42.5878 31.382L38.3148 28.8505C37.7963 28.5433 37.1259 28.7611 36.887 29.3144L34.9181 33.874C34.5706 34.6787 33.4294 34.6787 33.0819 33.874L31.113 29.3144C30.8741 28.7611 30.2037 28.5433 29.6852 28.8505L25.4122 31.382C24.6581 31.8287 23.7349 31.158 23.9268 30.3027L25.0139 25.4566C25.1459 24.8685 24.7315 24.2983 24.1315 24.242L19.1866 23.7785C18.3139 23.6966 17.9613 22.6114 18.6192 22.0322L22.3473 18.7506C22.7996 18.3524 22.7996 17.6476 22.3473 17.2494L18.6192 13.9678C17.9613 13.3886 18.3139 12.3034 19.1866 12.2215L24.1315 11.758C24.7315 11.7017 25.1459 11.1315 25.0139 10.5434L23.9268 5.6973C23.7349 4.84198 24.6581 4.17126 25.4122 4.61805L29.6852 7.14954C30.2037 7.45671 30.8741 7.23889 31.113 6.68563L33.0819 2.12601Z" fill="#C1A7CF"/>
<path d="M7.014 17.9947C7.52037 13.9971 10.921 11 14.9506 11H34.5269C38.3693 11 41.669 13.7318 42.3863 17.5067L44 26H6L7.014 17.9947Z" fill="#EAC2FF"/>
<path d="M2 40C2 38.8954 2.89543 38 4 38H8C9.10457 38 10 38.8954 10 40V46C10 47.1046 9.10457 48 8 48H4C2.89543 48 2 47.1046 2 46V40Z" fill="#7823A6"/>
<path d="M40 40C40 38.8954 40.8954 38 42 38H46C47.1046 38 48 38.8954 48 40V46C48 47.1046 47.1046 48 46 48H42C40.8954 48 40 47.1046 40 46V40Z" fill="#7823A6"/>
<path d="M37.6016 25.9746C37.6016 28.1837 35.8107 29.9746 33.6016 29.9746C31.3924 29.9746 29.6016 28.1837 29.6016 25.9746C29.6016 23.7655 31.3924 21.9746 33.6016 21.9746C35.8107 21.9746 37.6016 23.7655 37.6016 25.9746Z" stroke="#646E80" stroke-width="2"/>
<path d="M2 29C2 26.2386 4.23858 24 7 24H43C45.7614 24 48 26.2386 48 29V41C48 42.1046 47.1046 43 46 43H4C2.89543 43 2 42.1046 2 41L2 29Z" fill="#AC5AD9"/>
<ellipse cx="11" cy="35" rx="4" ry="4" fill="white"/>
<ellipse cx="39" cy="35" rx="4" ry="4" fill="white"/>
</svg>
