<svg width="52" height="52" viewBox="0 0 52 52" fill="none" xmlns="http://www.w3.org/2000/svg">
<g id="ic/visual/52/product_camera_fill">
<g id="Group 1261157611">
<path id="Rectangle 7108" d="M3 7C3 4.79086 4.79086 3 7 3H30.5789C32.7881 3 34.5789 4.79086 34.5789 7V29C34.5789 31.2091 32.7881 33 30.5789 33H7C4.79086 33 3 31.2091 3 29V7Z" fill="#E1CFC2"/>
<path id="Vector" d="M10.8884 15.636C12.6324 15.636 14.0463 14.2221 14.0463 12.4781C14.0463 10.734 12.6324 9.32019 10.8884 9.32019C9.14431 9.32019 7.73047 10.734 7.73047 12.4781C7.73047 14.2221 9.14431 15.636 10.8884 15.636Z" fill="#BC6323"/>
<path id="Vector_2" d="M16.7092 21.4423C16.3089 21.9599 15.5275 21.9599 15.1272 21.4423L13.4526 19.2772C13.0523 18.7596 12.2709 18.7596 11.8706 19.2772L7.39506 25.0637C6.88672 25.721 7.35518 26.6755 8.18608 26.6755H30.1634C30.9943 26.6755 31.4628 25.721 30.9544 25.0637L23.2223 15.0667C22.822 14.5491 22.0407 14.5491 21.6403 15.0667L16.7092 21.4423Z" fill="#F08244"/>
<g id="Mask group">
<mask id="mask0_7924_66141" style="mask-type:alpha" maskUnits="userSpaceOnUse" x="7" y="14" width="25" height="13">
<path id="Vector_3" d="M16.7248 21.4605C16.3245 21.9781 15.5431 21.9781 15.1428 21.4605L13.4682 19.2954C13.0679 18.7778 12.2865 18.7778 11.8862 19.2954L7.41069 25.0819C6.90235 25.7392 7.37081 26.6937 8.2017 26.6937H30.1791C31.0099 26.6937 31.4784 25.7392 30.9701 25.0819L23.238 15.0849C22.8376 14.5673 22.0563 14.5673 21.6559 15.0849L16.7248 21.4605Z" fill="#F08244"/>
</mask>
<g mask="url(#mask0_7924_66141)">
<path id="Vector 1027" d="M12.4842 27.4904L16.4315 21.9641L14.0631 18.0167H11.6947L5.37891 21.9641V27.0957L12.4842 27.4904Z" fill="#BC6323"/>
</g>
</g>
</g>
<g id="Group 1261157612">
<circle id="Ellipse 2252" cx="33" cy="33" r="16" fill="white"/>
<g id="_&#228;&#190;&#157;1">
<path id="Vector_4" d="M28.7523 31.0532C28.6745 31.2364 28.6609 31.4343 28.7121 31.6256C28.7841 31.8941 28.974 32.1091 29.2327 32.2156L30.2735 32.6426C30.2132 33.0385 30.2352 33.4435 30.3392 33.8317C30.7591 35.3987 32.39 36.3278 33.9753 35.903C34.6262 35.7286 35.1871 35.35 35.586 34.8221L40.069 36.6611C40.5257 36.8486 41.0535 36.6321 41.2458 36.1787C41.3388 35.9592 41.3399 35.7172 41.2492 35.4977C41.1585 35.2781 40.9866 35.1071 40.7654 35.0164L36.1864 33.1378C36.196 32.8534 36.1632 32.5697 36.0886 32.2911C35.6687 30.7241 34.0374 29.795 32.4525 30.2197C31.9172 30.3632 31.4439 30.6436 31.0671 31.0377L29.9292 30.5708C29.4724 30.3834 28.9446 30.5998 28.7523 31.0532ZM32.8897 31.8517C33.5646 31.6709 34.2592 32.0663 34.438 32.7334C34.4921 32.9352 34.4927 33.1496 34.4399 33.3561C34.4185 33.409 34.3995 33.4666 34.3831 33.5286C34.2318 33.8931 33.919 34.169 33.5377 34.2712C32.8629 34.452 32.1685 34.0564 31.9897 33.389C31.8109 32.7216 32.2145 32.0323 32.8893 31.8514L32.8897 31.8517Z" fill="#E05B10"/>
<path id="Vector_5" d="M27.3437 42.0033L24.5107 46.9103C22.3238 45.5233 20.4872 43.6116 19.181 41.3564C17.8187 39.0053 17.0683 36.3294 17 33.5938L20.4739 33.6115L22.6164 33.6224C22.7578 37.011 24.531 40.1532 27.3437 42.0037V42.0033Z" fill="#FFD991"/>
<path id="Vector_6" d="M22.6242 32.6437L20.8895 32.6349L17.0078 32.615C17.1023 29.8953 17.871 27.2418 19.2434 24.9119C20.5741 22.6528 22.4366 20.7471 24.6494 19.375L26.501 22.657L27.4338 24.3106C24.6 26.1335 22.7985 29.2548 22.6242 32.6437Z" fill="#FEC75C"/>
<path id="Vector_7" d="M28.2805 23.825L25.4961 18.8891C27.7961 17.6519 30.3813 17 33.004 17C35.6267 17 38.3162 17.6788 40.6533 18.967L37.8202 23.8739C36.3403 23.09 34.6855 22.6778 33.004 22.6778C31.3225 22.6778 29.7355 23.0733 28.2805 23.825Z" fill="#EDA61B"/>
<path id="Vector_8" d="M38.6566 24.3679L41.4896 19.4609C43.6766 20.8479 45.5127 22.7596 46.8194 25.0148C48.1816 27.3663 48.9324 30.0418 49.0003 32.7775L45.5383 32.7598L43.3836 32.7488C43.2422 29.3602 41.469 26.218 38.6562 24.3675L38.6566 24.3679Z" fill="#F08244"/>
<path id="Vector_9" d="M46.7607 41.4659C45.43 43.725 43.5675 45.6307 41.3547 47.0031L38.5703 42.0675C41.4041 40.2446 43.2056 37.1233 43.3799 33.7344L45.1153 33.7432L48.9959 33.7631C48.9014 36.4828 48.1328 39.1363 46.7604 41.4662L46.7607 41.4659Z" fill="#E05B10"/>
</g>
</g>
</g>
</svg>
