<svg width="52" height="52" viewBox="0 0 52 52" fill="none" xmlns="http://www.w3.org/2000/svg">
<path d="M44.375 12.1427C44.375 10.791 43.2793 9.69531 41.9276 9.69531H9.44738C8.09573 9.69531 7 10.7935 7 12.1451C7 24.5234 7 32.4219 7 44.8002C7 46.1518 8.09573 47.25 9.44737 47.25L35.0312 47.25L44.375 37.8613L44.375 12.1427Z" fill="#CBE0FF"/>
<path fill-rule="evenodd" clip-rule="evenodd" d="M37.4721 37.8648L44.3634 37.8648L35.0307 47.2424L35.0307 40.318C35.0307 38.9631 36.1237 37.8648 37.4721 37.8648Z" fill="#7BB2FF"/>
<path d="M7 12.1427C7 10.791 8.09573 9.69531 9.44737 9.69531H41.9276C43.2793 9.69531 44.375 10.791 44.375 12.1427V21.4312H7V12.1427Z" fill="#7BB2FF"/>
<path d="M14.0078 6.75195C14.0078 5.78438 14.7922 5 15.7598 5C16.7273 5 17.5117 5.78438 17.5117 6.75195V10.2896C17.5117 11.2571 16.7273 12.0415 15.7598 12.0415C14.7922 12.0415 14.0078 11.2571 14.0078 10.2896V6.75195Z" fill="#5076FF"/>
<path d="M33.8633 6.75195C33.8633 5.78438 34.6477 5 35.6152 5C36.5828 5 37.3672 5.78438 37.3672 6.75195V10.2896C37.3672 11.2571 36.5828 12.0415 35.6152 12.0415C34.6477 12.0415 33.8633 11.2571 33.8633 10.2896V6.75195Z" fill="#5076FF"/>
<path d="M31.5254 28.4766L23.5999 35.5181L19.8457 31.2932" stroke="#5076FF" stroke-width="3.67106" stroke-linecap="round" stroke-linejoin="round"/>
</svg>
