<svg width="52" height="52" viewBox="0 0 52 52" fill="none" xmlns="http://www.w3.org/2000/svg">
<path fill-rule="evenodd" clip-rule="evenodd" d="M5 13.8333L15.8333 3L15.8333 13.8333L5 13.8333Z" fill="#0D5F1F"/>
<path fill-rule="evenodd" clip-rule="evenodd" d="M5 13.8333V42C5 43.1966 5.97005 44.1667 7.16667 44.1667H37.5C38.6966 44.1667 39.6667 43.1966 39.6667 42V5.16667C39.6667 3.97005 38.6966 3 37.5 3H15.8333V11.6667C15.8333 12.8633 14.8633 13.8333 13.6667 13.8333H5Z" fill="#33AA4D"/>
<path d="M15.2917 22.333H29.3751M15.2917 27.7497C15.2917 27.7497 18.0004 27.7497 23.5002 27.7497" stroke="white" stroke-width="1.95" stroke-linecap="round"/>
<circle cx="34.6103" cy="38.2988" r="8.0568" fill="white" stroke="#0D5F1F" stroke-width="3.48402"/>
<rect x="37.5728" y="44.5996" width="4.35503" height="9.16301" rx="2.17751" transform="rotate(-41.1416 37.5728 44.5996)" fill="#0D5F1F"/>
</svg>
