<?xml version="1.0" encoding="utf-8"?>
<!-- Generator: Adobe Illustrator 16.0.3, SVG Export Plug-In . SVG Version: 6.00 Build 0)  -->
<!DOCTYPE svg PUBLIC "-//W3C//DTD SVG 1.1//EN" "http://www.w3.org/Graphics/SVG/1.1/DTD/svg11.dtd">
<svg version="1.1" id="Layer_1" xmlns="http://www.w3.org/2000/svg" xmlns:xlink="http://www.w3.org/1999/xlink" x="0px" y="0px"
	 width="52px" height="52px" viewBox="0 0 52 52" enable-background="new 0 0 52 52" xml:space="preserve">
<path fill="#03C75A" d="M26.002,5.87c-8.373,0-15.15,6.742-15.15,15.064c0,2.874,0.774,5.553,2.188,7.834L25.65,47.15
	c0.168,0.253,0.531,0.253,0.702,0l12.609-18.382c1.401-2.281,2.187-4.96,2.187-7.834C41.148,12.612,34.372,5.87,26.002,5.87"/>
<path fill="#FFFFFF" d="M27.904,21.325l-3.83-5.527c-0.084-0.122-0.221-0.195-0.368-0.195H20.84c-0.103,0-0.187,0.083-0.187,0.189
	v10.316c0,0.104,0.084,0.187,0.187,0.187h3.071c0.102,0,0.186-0.083,0.186-0.187v-5.536l3.83,5.527
	c0.083,0.122,0.222,0.195,0.368,0.195h2.866c0.102,0,0.186-0.083,0.186-0.187V15.79c0-0.104-0.084-0.188-0.186-0.188H28.09
	c-0.103,0-0.186,0.083-0.186,0.188V21.325L27.904,21.325z"/>
</svg>
