<svg width="52" height="52" viewBox="0 0 52 52" fill="none" xmlns="http://www.w3.org/2000/svg">
<path d="M25.7397 20.5207C25.9986 19.7297 27.119 19.7335 27.3725 20.5263L30.3311 29.7802C31.1566 32.3619 29.2304 35 26.5199 35C23.7979 35 21.8704 32.3409 22.7172 29.754L25.7397 20.5207Z" fill="#52565B"/>
<path fill-rule="evenodd" clip-rule="evenodd" d="M26.5 12.4902C18.1874 12.4902 11.4561 19.2457 11.4561 27.5699C11.4561 31.9967 13.3532 35.9736 16.3929 38.7395C18.3274 40.4997 18.4739 43.5006 16.7199 45.442C14.966 47.3835 11.976 47.5305 10.0414 45.7702C5.10916 41.2823 2 34.7874 2 27.5699C2 13.9962 12.9732 3 26.5 3C40.0268 3 51 13.9962 51 27.5699C51 34.7874 47.8908 41.2823 42.9586 45.7702C41.024 47.5305 38.034 47.3835 36.2801 45.442C34.5261 43.5006 34.6726 40.4997 36.6071 38.7395C39.6469 35.9736 41.5439 31.9967 41.5439 27.5699C41.5439 19.2457 34.8126 12.4902 26.5 12.4902Z" fill="#3ACB8B"/>
<path d="M26.5 12.4902C34.8126 12.4902 41.5439 19.2457 41.5439 27.5699C41.5439 31.9967 39.6468 35.9736 36.6071 38.7395C34.6726 40.4997 34.5261 43.5006 36.2801 45.442C38.034 47.3835 41.024 47.5305 42.9586 45.7702C47.8908 41.2823 51 34.7874 51 27.5699C51 13.9962 40.0268 3 26.5 3V12.4902Z" fill="#ACF6D6"/>
<mask id="mask0_7130_10578" style="mask-type:alpha" maskUnits="userSpaceOnUse" x="26" y="3" width="25" height="44">
<path d="M26.5 12.4902C34.8126 12.4902 41.5439 19.2457 41.5439 27.5699C41.5439 31.9967 39.6468 35.9736 36.6071 38.7395C34.6726 40.4997 34.5261 43.5006 36.2801 45.442C38.034 47.3835 41.024 47.5305 42.9586 45.7702C47.8908 41.2823 51 34.7874 51 27.5699C51 13.9962 40.0268 3 26.5 3V12.4902Z" fill="#87F5C5"/>
</mask>
<g mask="url(#mask0_7130_10578)">
<path d="M25 -4.04297L58 -0.576302L34.5526 20.2237L25 21.957V-4.04297Z" fill="#55EAA9"/>
</g>
</svg>
