<svg width="52" height="52" viewBox="0 0 52 52" fill="none" xmlns="http://www.w3.org/2000/svg">
<g clip-path="url(#clip0_7252_64515)">
<path d="M10 22C10 33.598 19.1782 43 30.5 43C41.8218 43 51 33.598 51 22H10Z" fill="#5076FF"/>
<circle cx="18.5" cy="42.5" r="6.5" fill="#62C2FE"/>
<circle cx="40.5" cy="42.5" r="6.5" fill="#62C2FE"/>
<path d="M9.4206 21.7708C8.49879 20.8378 7.24276 20.3122 5.93479 20.3122H1.42047C0.644133 20.3122 0.0123655 19.6721 0.00796619 18.8826C0.00356689 18.0932 0.6282 17.4531 1.40454 17.4531H7.08404C8.39242 17.4531 9.64881 17.979 10.5707 18.9126L14.6195 23.0128C15.1713 23.5712 15.1763 24.4758 14.6308 25.0342C14.0852 25.5926 13.1964 25.5926 12.6447 25.0342L9.4206 21.7708Z" fill="#5076FF" stroke="#5076FF" stroke-width="0.8125"/>
<path d="M51 22C50.1563 11.9084 42.3722 3.87668 32.6243 3.06717C31.7299 2.9929 31 3.72754 31 4.625V22H51Z" fill="#62C2FE"/>
<path d="M31 22L45.35 9.25821C42.2001 5.77334 37.5261 3.46494 32.7537 3.00707C31.7883 2.91445 31 3.74421 31 4.75679V22Z" fill="#69F8AF"/>
</g>
<defs>
<clipPath id="clip0_7252_64515">
<rect width="52" height="52" fill="white"/>
</clipPath>
</defs>
</svg>
