<svg width="52" height="52" viewBox="0 0 52 52" fill="none" xmlns="http://www.w3.org/2000/svg">
<rect x="23.5" y="8" width="5" height="8" fill="#B7BEC5"/>
<path d="M15.5 6C15.5 5.44772 15.9477 5 16.5 5H35.5C36.0523 5 36.5 5.44772 36.5 6V8C36.5 9.10457 35.6046 10 34.5 10H17.5C16.3954 10 15.5 9.10457 15.5 8V6Z" fill="#8692A0"/>
<path d="M3 19C3 16.7909 4.79086 15 7 15H45C47.2091 15 49 16.7909 49 19V43C49 45.2091 47.2091 47 45 47H7C4.79086 47 3 45.2091 3 43V19Z" fill="#5A6375"/>
<circle cx="40.5" cy="23.5" r="2.5" fill="#FF5E3A"/>
<circle cx="19" cy="31" r="10" fill="white"/>
<circle cx="19" cy="31" r="7" fill="#5A6375"/>
</svg>
