<svg width="52" height="52" viewBox="0 0 52 52" fill="none" xmlns="http://www.w3.org/2000/svg">
<path fill-rule="evenodd" clip-rule="evenodd" d="M7.64383 8H20.1053C21.8275 8 23.4791 8.68412 24.6968 9.90186L25.2219 10.427C26.4397 11.6448 26.0966 11.3289 29.8134 11.3289C33.5302 11.3289 38.9461 11.3289 38.9461 11.3289C40.1415 11.3289 41.1618 11.7515 42.007 12.5968C42.8522 13.4421 43.275 14.4624 43.275 15.6578L42.275 38.8384C42.275 40.0339 41.8522 41.0542 41.007 41.8994C40.1618 42.7446 39.1415 43.1673 37.9461 43.1673H7.64383C6.44844 43.1673 5.42811 42.7447 4.58284 41.8994C3.73758 41.0541 3.31494 40.0338 3.31494 38.8384V12.3289C3.31494 11.1335 3.73758 10.1132 4.58284 9.2679C5.42811 8.42263 6.44844 8 7.64383 8Z" fill="url(#paint0_linear_7252_66330)"/>
<mask id="mask0_7252_66330" style="mask-type:alpha" maskUnits="userSpaceOnUse" x="3" y="15" width="46" height="29">
<rect x="3.00024" y="15.5869" width="45.963" height="27.5778" rx="1.83852" fill="url(#paint1_linear_7252_66330)"/>
</mask>
<g mask="url(#mask0_7252_66330)">
<path fill-rule="evenodd" clip-rule="evenodd" d="M9.90662 38.922V19.8297C9.90662 18.6581 10.3566 17.658 11.2566 16.8296C12.1565 16.0011 13.2429 15.5869 14.5156 15.5869H44.3535C45.6262 15.5869 46.7125 16.0011 47.6125 16.8296C48.5125 17.658 48.9625 18.6581 48.9625 19.8297V38.922C48.9625 40.0936 48.5125 41.0936 47.6125 41.922C46.7125 42.7505 45.6262 43.1647 44.3535 43.1647H5.29761C6.57035 43.1647 7.65671 42.7504 8.55666 41.922C9.45664 41.0936 9.90662 40.0936 9.90662 38.922Z" fill="url(#paint2_linear_7252_66330)"/>
</g>
<path d="M9.89282 17.4254C9.89282 16.41 10.716 15.5869 11.7313 15.5869H47.1229C48.1383 15.5869 48.9614 16.41 48.9614 17.4254V41.3262C48.9614 42.3416 48.1383 43.1647 47.1229 43.1647H11.7313C10.716 43.1647 9.89282 42.3416 9.89282 41.3262V17.4254Z" fill="url(#paint3_linear_7252_66330)"/>
<rect x="36.1189" y="23.6436" width="3.17307" height="15.8653" rx="1.58653" transform="rotate(45 36.1189 23.6436)" fill="white"/>
<rect x="29.2263" y="35.0059" width="3.17307" height="8.32622" rx="1.58653" transform="rotate(135 29.2263 35.0059)" fill="white"/>
<defs>
<linearGradient id="paint0_linear_7252_66330" x1="22.795" y1="9" x2="22.795" y2="43.1673" gradientUnits="userSpaceOnUse">
<stop stop-color="#33AA4D"/>
<stop offset="1" stop-color="#228B39"/>
</linearGradient>
<linearGradient id="paint1_linear_7252_66330" x1="37.7711" y1="26.9342" x2="97.8612" y2="121.188" gradientUnits="userSpaceOnUse">
<stop stop-color="#22DB6C"/>
<stop offset="0.604167" stop-color="#4F8BFF"/>
</linearGradient>
<linearGradient id="paint2_linear_7252_66330" x1="38.3299" y1="26.9342" x2="99.6676" y2="118.334" gradientUnits="userSpaceOnUse">
<stop stop-color="#22DB6C"/>
<stop offset="0.604167" stop-color="#4F8BFF"/>
</linearGradient>
<linearGradient id="paint3_linear_7252_66330" x1="53.2369" y1="17.7416" x2="116.868" y2="102.578" gradientUnits="userSpaceOnUse">
<stop stop-color="#22DB6C"/>
<stop offset="0.604167" stop-color="#4F8BFF"/>
</linearGradient>
</defs>
</svg>
