<svg width="28" height="29" viewBox="0 0 28 29" fill="none" xmlns="http://www.w3.org/2000/svg">
<path d="M19.5304 15.0132C19.5039 13.4756 20.1684 12.279 21.5208 11.4234C20.7593 10.3151 19.6333 9.69177 18.1486 9.55359C17.6194 9.50361 16.9432 9.63003 16.1229 9.93285C15.2379 10.2621 14.7411 10.4238 14.6294 10.4238C14.3971 10.4238 13.9473 10.2857 13.2828 10.0093C12.6213 9.73293 12.0539 9.59475 11.5864 9.59475C10.8015 9.60651 10.0694 9.82407 9.39318 10.2474C8.71697 10.6708 8.17601 11.247 7.77323 11.9762C7.25578 12.8846 7 13.9666 7 15.2249C7 16.3597 7.1911 17.4917 7.57036 18.6265C7.92611 19.7114 8.38181 20.661 8.93454 21.4783C9.42552 22.2221 9.8577 22.7631 10.2252 23.1042C10.7544 23.6334 11.2954 23.8862 11.8481 23.8597C12.2038 23.848 12.6713 23.7157 13.2476 23.4628C13.7885 23.2247 14.3295 23.1042 14.8704 23.1042C15.3732 23.1042 15.8965 23.2218 16.4375 23.4628C17.0372 23.7098 17.5282 23.8362 17.9104 23.8362C18.4749 23.8127 19.0041 23.5657 19.4951 23.1012C19.6656 22.9483 19.8538 22.7425 20.0566 22.4779C20.2595 22.2133 20.4829 21.8987 20.7299 21.5342C20.9004 21.2696 21.071 20.9873 21.2356 20.6845C21.4002 20.3817 21.5531 20.0612 21.6884 19.7202C21.7501 19.582 21.803 19.4409 21.853 19.2968C21.903 19.1528 21.95 19.0058 22 18.8529C21.5443 18.653 21.1327 18.3678 20.7652 18.0032C19.9567 17.1918 19.5451 16.198 19.5304 15.0132Z" fill="#0C0C0C"/>
<path d="M17.2079 8.02234C17.8606 7.20208 18.184 6.32301 18.184 5.37632C18.184 5.31458 18.184 5.2499 18.184 5.18816C18.184 5.12348 18.1781 5.06174 18.1663 5C17.7106 5.02646 17.2285 5.17052 16.7198 5.43512C16.2112 5.69973 15.7908 6.03489 15.4586 6.43767C14.7941 7.23148 14.4648 8.08114 14.4648 8.98961C14.4648 9.05135 14.4648 9.11309 14.4648 9.16895C14.4648 9.22481 14.4707 9.28655 14.4825 9.34829C15.5027 9.44531 16.4111 9.00431 17.2079 8.02234Z" fill="#0C0C0C"/>
</svg>
