<svg width="28" height="29" viewBox="0 0 28 29" fill="none" xmlns="http://www.w3.org/2000/svg">
<mask id="mask0_5789_70358" style="mask-type:luminance" maskUnits="userSpaceOnUse" x="8" y="6" width="18" height="19">
<path d="M21.0329 13.0353L17.1662 10.802C17.1662 10.802 10.0995 6.73532 9.69954 6.50199C9.29954 6.26866 8.86621 6.40199 8.86621 6.90199C8.86621 7.73532 8.86621 15.602 8.86621 15.602C8.86621 15.602 8.86621 24.102 8.86621 24.4687C8.86621 24.8353 9.16621 25.002 9.53288 24.802C9.89954 24.602 17.1662 20.402 17.1662 20.402L21.0329 18.1687C21.0329 18.1687 24.3329 16.2687 24.7662 16.0353C25.1995 15.7687 25.1662 15.4353 24.7995 15.2353C24.4329 15.002 21.0329 13.0353 21.0329 13.0353Z" fill="white"/>
</mask>
<g mask="url(#mask0_5789_70358)">
<path d="M8.86621 6.07031V15.5703V25.1036L18.4662 15.5703L8.86621 6.07031Z" fill="url(#paint0_linear_5789_70358)"/>
</g>
<mask id="mask1_5789_70358" style="mask-type:luminance" maskUnits="userSpaceOnUse" x="8" y="6" width="18" height="19">
<path d="M21.0329 13.0353L17.1662 10.802C17.1662 10.802 10.0995 6.73532 9.69954 6.50199C9.29954 6.26866 8.86621 6.40199 8.86621 6.90199C8.86621 7.73532 8.86621 15.602 8.86621 15.602C8.86621 15.602 8.86621 24.102 8.86621 24.4687C8.86621 24.8353 9.16621 25.002 9.53288 24.802C9.89954 24.602 17.1662 20.402 17.1662 20.402L21.0329 18.1687C21.0329 18.1687 24.3329 16.2687 24.7662 16.0353C25.1995 15.7687 25.1662 15.4353 24.7995 15.2353C24.4329 15.002 21.0329 13.0353 21.0329 13.0353Z" fill="white"/>
</mask>
<g mask="url(#mask1_5789_70358)">
<path d="M21.0329 13.0372L17.1662 10.8039L8.86621 6.00391V6.07057L18.4662 15.5706L21.0329 13.0372Z" fill="url(#paint1_linear_5789_70358)"/>
</g>
<mask id="mask2_5789_70358" style="mask-type:luminance" maskUnits="userSpaceOnUse" x="8" y="6" width="18" height="19">
<path d="M21.0329 13.0353L17.1662 10.802C17.1662 10.802 10.0995 6.73532 9.69954 6.50199C9.29954 6.26866 8.86621 6.40199 8.86621 6.90199C8.86621 7.73532 8.86621 15.602 8.86621 15.602C8.86621 15.602 8.86621 24.102 8.86621 24.4687C8.86621 24.8353 9.16621 25.002 9.53288 24.802C9.89954 24.602 17.1662 20.402 17.1662 20.402L21.0329 18.1687C21.0329 18.1687 24.3329 16.2687 24.7662 16.0353C25.1995 15.7687 25.1662 15.4353 24.7995 15.2353C24.4329 15.002 21.0329 13.0353 21.0329 13.0353Z" fill="white"/>
</mask>
<g mask="url(#mask2_5789_70358)">
<path d="M8.86621 25.1036V25.1703L17.1662 20.3703L21.0329 18.137L18.4662 15.5703L8.86621 25.1036Z" fill="url(#paint2_linear_5789_70358)"/>
</g>
<mask id="mask3_5789_70358" style="mask-type:luminance" maskUnits="userSpaceOnUse" x="8" y="6" width="18" height="19">
<path d="M21.0329 13.0353L17.1662 10.802C17.1662 10.802 10.0995 6.73532 9.69954 6.50199C9.29954 6.26866 8.86621 6.40199 8.86621 6.90199C8.86621 7.73532 8.86621 15.602 8.86621 15.602C8.86621 15.602 8.86621 24.102 8.86621 24.4687C8.86621 24.8353 9.16621 25.002 9.53288 24.802C9.89954 24.602 17.1662 20.402 17.1662 20.402L21.0329 18.1687C21.0329 18.1687 24.3329 16.2687 24.7662 16.0353C25.1995 15.7687 25.1662 15.4353 24.7995 15.2353C24.4329 15.002 21.0329 13.0353 21.0329 13.0353Z" fill="white"/>
</mask>
<g mask="url(#mask3_5789_70358)">
<path d="M21.0325 13.0352L18.4658 15.5685L21.0325 18.1352L25.4658 15.5685L21.0325 13.0352Z" fill="url(#paint3_linear_5789_70358)"/>
</g>
<defs>
<linearGradient id="paint0_linear_5789_70358" x1="13.6696" y1="6.07591" x2="13.6696" y2="25.0905" gradientUnits="userSpaceOnUse">
<stop stop-color="#207CB0"/>
<stop offset="0.3757" stop-color="#3CB2BF"/>
<stop offset="0.7961" stop-color="#58E9CE"/>
<stop offset="1" stop-color="#63FFD4"/>
</linearGradient>
<linearGradient id="paint1_linear_5789_70358" x1="8.87551" y1="10.7953" x2="21.0391" y2="10.7953" gradientUnits="userSpaceOnUse">
<stop stop-color="#4BC3AE"/>
<stop offset="1" stop-color="#DEE999"/>
</linearGradient>
<linearGradient id="paint2_linear_5789_70358" x1="14.9572" y1="15.5834" x2="14.9572" y2="25.1596" gradientUnits="userSpaceOnUse">
<stop stop-color="#EC403D"/>
<stop offset="0.384" stop-color="#C93B75"/>
<stop offset="0.7988" stop-color="#A636AC"/>
<stop offset="1" stop-color="#9934C2"/>
</linearGradient>
<linearGradient id="paint3_linear_5789_70358" x1="21.9625" y1="13.0279" x2="21.9625" y2="18.135" gradientUnits="userSpaceOnUse">
<stop stop-color="#FF8877"/>
<stop offset="0.6121" stop-color="#FFB175"/>
<stop offset="1" stop-color="#FFC774"/>
</linearGradient>
</defs>
</svg>
