<svg width="52" height="52" viewBox="0 0 52 52" fill="none" xmlns="http://www.w3.org/2000/svg">
<path fill-rule="evenodd" clip-rule="evenodd" d="M18.9973 6C17.3405 6 15.9973 7.34315 15.9973 9V17H19.9973C19.445 17 18.9973 16.5523 18.9973 16V10C18.9973 9.44772 19.445 9 19.9973 9H31.9973C32.5496 9 32.9973 9.44772 32.9973 10V16C32.9973 16.5523 32.5496 17 31.9973 17H35.9973V9C35.9973 7.34315 34.6542 6 32.9973 6H18.9973Z" fill="#38D36A"/>
<path d="M27.2017 23.2636C27.1119 23.2636 27.0392 23.1909 27.0392 23.1011V19.5883C27.0392 19.4985 26.9664 19.4258 26.8767 19.4258H23.3639C23.2741 19.4258 23.2014 19.4985 23.2014 19.5883L23.2014 23.1011C23.2014 23.1909 23.1286 23.2636 23.0389 23.2636H19.526C19.4363 23.2636 19.3635 23.3364 19.3635 23.4261V26.9389C19.3635 27.0287 19.4363 27.1014 19.526 27.1014H23.0389C23.1286 27.1014 23.2014 27.1742 23.2014 27.2639L23.2014 30.7768C23.2014 30.8665 23.2741 30.9393 23.3639 30.9393H26.8767C26.9664 30.9393 27.0392 30.8665 27.0392 30.7768V27.2639C27.0392 27.1742 27.1119 27.1014 27.2017 27.1014H30.7145C30.8043 27.1014 30.877 27.0287 30.877 26.9389V23.4261C30.877 23.3364 30.8043 23.2636 30.7145 23.2636H27.2017Z" fill="white"/>
<path d="M4 17C4 14.2386 6.23858 12 9 12H43C45.7614 12 48 14.2386 48 17V42C48 43.6569 46.6569 45 45 45H7C5.34315 45 4 43.6569 4 42V17Z" fill="#38D36A"/>
<path d="M28 31V27H24L24 31H20V35H24L24 39H28V35H32V31H28Z" fill="white"/>
<path d="M4 16.875C4 14.1826 6.18261 12 8.875 12H43.125C45.8174 12 48 14.1826 48 16.875V22H4V16.875Z" fill="#69F8AF"/>
</svg>
