<?xml version="1.0" encoding="utf-8"?>
<!-- Generator: Adobe Illustrator 16.0.3, SVG Export Plug-In . SVG Version: 6.00 Build 0)  -->
<!DOCTYPE svg PUBLIC "-//W3C//DTD SVG 1.1//EN" "http://www.w3.org/Graphics/SVG/1.1/DTD/svg11.dtd">
<svg version="1.1" id="Layer_1" xmlns="http://www.w3.org/2000/svg" xmlns:xlink="http://www.w3.org/1999/xlink" x="0px" y="0px"
	 width="52px" height="52px" viewBox="0 0 52 52" enable-background="new 0 0 52 52" xml:space="preserve">
<g>
	<path fill="#69F8AF" d="M35.483,19.085c0,0,2.621-13.212,1.934-13.892s-3.078,0.688-3.078,0.688
		c-5.039,1.125-9.203,4.651-11.147,9.435l-2.004,4.932"/>
	<path fill="#62C2FE" d="M32.722,15.954c0,0-0.027-12.3-1.094-12.805s-2.355,0.807-5.303,3.744c-2.95,2.938-5.353,8.19-5.353,8.19
		l-0.789,4.813"/>
	<path fill="#62C2FE" d="M49.495,24.583c-0.777-1.748-2.27-2.375-2.859-4.038c-0.59-1.662-1.305-14.733-18.861-10.842
		c-7.37,1.334-10.999,5.212-13.721,11.641c-0.238,0.563-0.467,1.137-0.674,1.74c0,0-10.871,22.825-11.252,23.811
		c-0.383,0.986,0.121,1.654,1.162,1.654c1.043,0,28.061-0.057,31.475-0.057s3.988-1.328,3.988-2.371s0.012-10.367,0.012-10.367
		s8.461-2.268,9.684-4.496C49.667,29.029,50.269,26.333,49.495,24.583z"/>
	<circle fill="#FFFFFF" cx="41.12" cy="22.052" r="1.805"/>
	<path fill="#5076FF" d="M48.116,23.353c0,0,0.809-0.688,1.48,0s0.301,2.656,0.301,2.656s-2.18-0.652-2.246-1.578
		C47.585,23.501,48.116,23.353,48.116,23.353z"/>
	<g>
		<defs>
			<path id="SVGID_1_" d="M49.495,24.583c-0.777-1.748-2.27-2.375-2.859-4.038c-0.59-1.662-1.305-14.733-18.861-10.842
				c-7.37,1.334-10.999,5.212-13.721,11.641c-0.238,0.563-0.467,1.137-0.674,1.74c0,0-10.871,22.825-11.252,23.811
				c-0.383,0.986,0.121,1.654,1.162,1.654c1.043,0,28.061-0.057,31.475-0.057s3.988-1.328,3.988-2.371s0.012-9.793,0.012-9.793
				s8.461-2.842,9.684-5.07C49.667,29.029,50.269,26.333,49.495,24.583z"/>
		</defs>
		<clipPath id="SVGID_2_">
			<use xlink:href="#SVGID_1_"  overflow="visible"/>
		</clipPath>
		<g clip-path="url(#SVGID_2_)">
			<ellipse fill="#5076FF" cx="12.411" cy="42.951" rx="14.043" ry="13.654"/>
		</g>
	</g>
</g>
</svg>
